# xmcd
#
# Track frame offsets:
#	150
#	11640
#	23860
#	37252
#	53000
#	65300
#	80570
#	97137
#	109022
#	122330
#	134907
#	149830
#	162320
#	174090
#	188982
#	204585
#
# Disc length: 2936 seconds
#
# Revision: 1
# Processed by: cddbd v1.5.1PL0 Copyright (c) Steve Scherf et al.
# Submitted via: audiograbber 1.83.01
#
DISCID=e80b7610
DTITLE=Carla Boni - Musica in simpatia
DYEAR=2000
DGENRE=Canzone
TTITLE0=Mambo Italiano
TTITLE1=Amo Parigi (I Love Paris)
TTITLE2=Andalusia
TTITLE3=Casetta in Canadà
TTITLE4=Ciao (Oho-Aha)
TTITLE5=Come Giuda
TTITLE6=Concerto d'autunno
TTITLE7=Jezebel
TTITLE8=Johnny Guitar
TTITLE9=La Spagnola
TTITLE10=Malagueña
TTITLE11=O mein papà
TTITLE12=Por dos besos
TTITLE13=Viale d'autunno
TTITLE14=Acque amare
TTITLE15=Moulin Rouge
EXTD=
EXTT0=
EXTT1=
EXTT2=
EXTT3=
EXTT4=
EXTT5=
EXTT6=
EXTT7=
EXTT8=
EXTT9=
EXTT10=
EXTT11=
EXTT12=
EXTT13=
EXTT14=
EXTT15=
PLAYORDER=
